<?xml version="1.0" encoding="UTF-8"?>
<svg width="561px" height="636px" viewBox="0 0 561 636" version="1.1" xmlns="http://www.w3.org/2000/svg" xmlns:xlink="http://www.w3.org/1999/xlink">
    <!-- Generator: Sketch 52.5 (67469) - http://www.bohemiancoding.com/sketch -->
    <title>Group 2</title>
    <desc>Created with Sketch.</desc>
    <g id="Page-1" stroke="none" stroke-width="1" fill="none" fill-rule="evenodd">
        <g id="Desktop-HD" transform="translate(-1007.000000, -151.000000)">
            <g id="Group-2" transform="translate(1007.000000, 151.000000)">
                <circle id="Oval-Copy" fill="#FFE8EC" cx="280.5" cy="280.5" r="280.5"></circle>
                <path d="M212.960938,636 L212.960938,612.757812 L241.867188,611.195312 L248.117188,603.578125 L248.117188,398.304688 L241.867188,392.445312 L212.960938,390.882812 L212.960938,367.640625 L355.734375,367.640625 L355.734375,390.882812 L326.242188,392.445312 L319.796875,398.304688 L319.796875,603.578125 L326.242188,611.195312 L355.734375,612.757812 L355.734375,636 L212.960938,636 Z M377.023438,636 L377.023438,612.757812 L405.929688,611.195312 L412.179688,603.578125 L412.179688,398.304688 L405.929688,392.445312 L377.023438,390.882812 L377.023438,367.640625 L519.796875,367.640625 L519.796875,390.882812 L490.304688,392.445312 L483.859375,398.304688 L483.859375,603.578125 L490.304688,611.195312 L519.796875,612.757812 L519.796875,636 L377.023438,636 Z" id="II" fill="#9B2437"></path>
            </g>
        </g>
    </g>
</svg>