<?xml version="1.0" encoding="UTF-8"?>
<svg width="652px" height="636px" viewBox="0 0 652 636" version="1.1" xmlns="http://www.w3.org/2000/svg" xmlns:xlink="http://www.w3.org/1999/xlink">
    <!-- Generator: Sketch 52.5 (67469) - http://www.bohemiancoding.com/sketch -->
    <title>Group 4</title>
    <desc>Created with Sketch.</desc>
    <g id="Page-1" stroke="none" stroke-width="1" fill="none" fill-rule="evenodd">
        <g id="Desktop-HD" transform="translate(-2482.000000, -151.000000)">
            <g id="Group-4" transform="translate(2482.000000, 151.000000)">
                <circle id="Oval-Copy" fill="#FFE8EC" cx="280.5" cy="280.5" r="280.5"></circle>
                <path d="M212.960938,636 L212.960938,612.757812 L241.867188,611.195312 L248.117188,603.578125 L248.117188,398.304688 L241.867188,392.445312 L212.960938,390.882812 L212.960938,367.640625 L355.734375,367.640625 L355.734375,390.882812 L326.242188,392.445312 L319.796875,398.304688 L319.796875,603.578125 L326.242188,611.195312 L355.734375,612.757812 L355.734375,636 L212.960938,636 Z M358.664062,367.640625 L489.523438,367.640625 L489.523438,390.882812 L465.109375,392.445312 L460.617188,398.304688 L521.945312,563.539062 L582.296875,398.304688 L577.414062,392.445312 L552.21875,390.882812 L552.21875,367.640625 L651.046875,367.640625 L651.046875,390.882812 L622.726562,396.351562 L532.6875,636 L478.976562,636 L386.984375,395.179688 L358.664062,390.882812 L358.664062,367.640625 Z" id="IV" fill="#9B2437"></path>
            </g>
        </g>
    </g>
</svg>