<?xml version="1.0" encoding="UTF-8"?>
<svg width="561px" height="636px" viewBox="0 0 561 636" version="1.1" xmlns="http://www.w3.org/2000/svg" xmlns:xlink="http://www.w3.org/1999/xlink">
    <!-- Generator: Sketch 52.5 (67469) - http://www.bohemiancoding.com/sketch -->
    <title>Group 6</title>
    <desc>Created with Sketch.</desc>
    <g id="Page-1" stroke="none" stroke-width="1" fill="none" fill-rule="evenodd">
        <g id="Desktop-HD" transform="translate(-4001.000000, -151.000000)">
            <g id="Group-6" transform="translate(4001.000000, 151.000000)">
                <circle id="Oval" fill="#FFE8EC" cx="280.5" cy="280.5" r="280.5"></circle>
                <path d="M540.957031,469 L540.957031,498.541016 C523.216057,501.307957 509.462939,507.981067 499.697266,518.560547 C489.931592,529.140027 485.048828,542.649006 485.048828,559.087891 L485.048828,563.482422 L515.078125,563.482422 C519.309917,567.551453 522.443024,572.230768 524.477539,577.520508 C526.512054,582.810248 527.529297,588.791633 527.529297,595.464844 C527.529297,607.997458 523.867224,617.885055 516.542969,625.12793 C509.218713,632.370804 499.209048,635.992188 486.513672,635.992188 C470.888594,635.992188 458.478236,630.783906 449.282227,620.367188 C440.086217,609.950469 435.488281,595.871833 435.488281,578.130859 C435.488281,549.484883 445.294498,524.989685 464.907227,504.644531 C484.519955,484.299377 509.869636,472.417986 540.957031,469 Z M415.46875,469 L415.46875,498.541016 C397.727776,501.470718 384.056038,508.265897 374.453125,518.926758 C364.850212,529.587618 360.048828,543.300046 360.048828,560.064453 L360.048828,563.482422 L389.589844,563.482422 C393.821636,567.551453 396.954742,572.230768 398.989258,577.520508 C401.023773,582.810248 402.041016,588.791633 402.041016,595.464844 C402.041016,607.997458 398.378943,617.885055 391.054688,625.12793 C383.730432,632.370804 373.720767,635.992188 361.025391,635.992188 C345.400312,635.992188 332.989955,630.783906 323.793945,620.367188 C314.597936,609.950469 310,595.871833 310,578.130859 C310,549.484883 319.806217,524.989685 339.418945,504.644531 C359.031674,484.299377 384.381355,472.417986 415.46875,469 Z" id="“" fill="#9B2437"></path>
            </g>
        </g>
    </g>
</svg>