<?xml version="1.0" encoding="UTF-8"?>
<svg width="613px" height="636px" viewBox="0 0 613 636" version="1.1" xmlns="http://www.w3.org/2000/svg" xmlns:xlink="http://www.w3.org/1999/xlink">
    <!-- Generator: Sketch 52.5 (67469) - http://www.bohemiancoding.com/sketch -->
    <title>Group 3</title>
    <desc>Created with Sketch.</desc>
    <g id="Page-1" stroke="none" stroke-width="1" fill="none" fill-rule="evenodd">
        <g id="Desktop-HD" transform="translate(-1708.000000, -151.000000)">
            <g id="Group-3" transform="translate(1708.000000, 151.000000)">
                <circle id="Oval-Copy" fill="#FFE8EC" cx="280.5" cy="280.5" r="280.5"></circle>
                <path d="M141.960938,636 L141.960938,612.757812 L170.867188,611.195312 L177.117188,603.578125 L177.117188,398.304688 L170.867188,392.445312 L141.960938,390.882812 L141.960938,367.640625 L284.734375,367.640625 L284.734375,390.882812 L255.242188,392.445312 L248.796875,398.304688 L248.796875,603.578125 L255.242188,611.195312 L284.734375,612.757812 L284.734375,636 L141.960938,636 Z M306.023438,636 L306.023438,612.757812 L334.929688,611.195312 L341.179688,603.578125 L341.179688,398.304688 L334.929688,392.445312 L306.023438,390.882812 L306.023438,367.640625 L448.796875,367.640625 L448.796875,390.882812 L419.304688,392.445312 L412.859375,398.304688 L412.859375,603.578125 L419.304688,611.195312 L448.796875,612.757812 L448.796875,636 L306.023438,636 Z M470.085938,636 L470.085938,612.757812 L498.992188,611.195312 L505.242188,603.578125 L505.242188,398.304688 L498.992188,392.445312 L470.085938,390.882812 L470.085938,367.640625 L612.859375,367.640625 L612.859375,390.882812 L583.367188,392.445312 L576.921875,398.304688 L576.921875,603.578125 L583.367188,611.195312 L612.859375,612.757812 L612.859375,636 L470.085938,636 Z" id="III" fill="#9B2437"></path>
            </g>
        </g>
    </g>
</svg>