<?xml version="1.0" encoding="UTF-8"?>
<svg width="300px" height="300px" viewBox="0 0 300 300" version="1.1" xmlns="http://www.w3.org/2000/svg" xmlns:xlink="http://www.w3.org/1999/xlink">
    <!-- Generator: Sketch 52.5 (67469) - http://www.bohemiancoding.com/sketch -->
    <title>phone-book</title>
    <desc>Created with Sketch.</desc>
    <g id="Page-1" stroke="none" stroke-width="1" fill="none" fill-rule="evenodd">
        <g id="Desktop-HD" transform="translate(-378.000000, -335.000000)" fill="#9B2437">
            <g id="phone-book" transform="translate(378.000000, 335.000000)">
                <path d="M149.992,0.001 C67.156,0.001 0,67.159 0,149.998 C0,232.835 67.156,299.995 149.992,299.995 C232.834,299.995 299.995,232.834 299.995,149.998 C299.995,67.159 232.834,0.001 149.992,0.001 Z M210.947,217.132 L210.947,227.506 C210.947,233.235 206.302,237.88 200.573,237.88 L190.199,237.88 L132.943,237.88 L96.829,237.88 C85.371,237.88 76.08,228.59 76.08,217.131 L76.08,86.592 C76.08,75.134 85.37,65.843 96.829,65.843 L132.942,65.843 L190.198,65.843 L200.572,65.843 C206.301,65.843 210.946,70.488 210.946,76.217 L210.946,86.592 L210.947,86.592 L210.947,217.132 Z M231.695,86.592 L231.695,217.132 L231.695,227.506 C231.695,233.235 227.05,237.88 221.321,237.88 L218.515,237.88 C220.289,234.825 221.321,231.287 221.321,227.506 L221.321,217.132 L221.321,86.592 L221.321,76.219 C221.321,72.438 220.289,68.9 218.515,65.845 L221.321,65.845 C227.05,65.845 231.695,70.49 231.695,76.219 L231.695,86.592 Z" id="Shape" fill-rule="nonzero"></path>
                <path d="M175.591,165.517 C175.591,165.517 171.682,160.825 167.354,164.062 C164.128,166.474 158.331,171.838 156.938,173.14 C156.938,173.14 147.248,167.974 141.514,163.256 C133.02,156.271 127.34,147.648 124.363,142.743 L122.14,138.552 C122.915,137.717 128.85,131.363 131.417,127.913 C134.649,123.587 129.965,119.678 129.965,119.678 C129.965,119.678 116.782,106.495 113.781,103.88 C110.778,101.258 107.32,102.713 107.32,102.713 C101.005,106.795 94.461,110.341 94.072,127.399 C94.059,143.368 106.181,159.837 119.287,172.587 C132.418,186.989 150.449,201.42 167.875,201.404 C184.93,201.02 188.473,194.474 192.553,188.159 C192.553,188.159 194.013,184.704 191.394,181.701 C188.774,178.693 175.591,165.517 175.591,165.517 Z" id="Path"></path>
            </g>
        </g>
    </g>
</svg>