<?xml version="1.0" encoding="UTF-8"?>
<svg width="512px" height="512px" viewBox="0 0 512 512" version="1.1" xmlns="http://www.w3.org/2000/svg" xmlns:xlink="http://www.w3.org/1999/xlink">
    <!-- Generator: Sketch 52.5 (67469) - http://www.bohemiancoding.com/sketch -->
    <title>phone</title>
    <desc>Created with Sketch.</desc>
    <g id="Page-1" stroke="none" stroke-width="1" fill="none" fill-rule="evenodd">
        <g id="Desktop-HD" transform="translate(-463.000000, -384.000000)" fill="#9B2437" fill-rule="nonzero">
            <g id="phone" transform="translate(463.000000, 384.000000)">
                <path d="M256,32 C379.5,32 480,132.5 480,256 C480,379.5 379.5,480 256,480 C132.5,480 32,379.5 32,256 C32,132.5 132.5,32 256,32 Z M256,0 C114.625,0 0,114.625 0,256 C0,397.375 114.625,512 256,512 C397.375,512 512,397.375 512,256 C512,114.625 397.375,0 256,0 Z M398.719,341.594 L397.281,337.219 C393.906,327.157 382.781,316.657 372.531,313.844 L334.688,303.5 C324.438,300.719 309.813,304.469 302.283,312 L288.595,325.688 C238.845,312.219 199.814,273.188 186.376,223.438 L200.064,209.75 C207.564,202.25 211.314,187.625 208.533,177.344 L198.219,139.5 C195.438,129.25 184.875,118.125 174.813,114.75 L170.5,113.312 C160.406,109.937 146,113.343 138.5,120.875 L118,141.375 C114.344,145 112,155.406 112,155.438 C111.312,220.501 136.813,283.157 182.813,329.188 C228.688,375.063 291.126,400.533 355.969,399.969 C356.313,399.969 367.032,397.688 370.688,394.031 L391.188,373.531 C398.688,366.062 402.062,351.656 398.719,341.594 Z" id="Shape"></path>
            </g>
        </g>
    </g>
</svg>