<?xml version="1.0" encoding="UTF-8"?>
<svg width="439px" height="439px" viewBox="0 0 439 439" version="1.1" xmlns="http://www.w3.org/2000/svg" xmlns:xlink="http://www.w3.org/1999/xlink">
    <!-- Generator: Sketch 52.5 (67469) - http://www.bohemiancoding.com/sketch -->
    <title>Shape</title>
    <desc>Created with Sketch.</desc>
    <g id="Page-1" stroke="none" stroke-width="1" fill="none" fill-rule="evenodd">
        <g id="Desktop-HD" transform="translate(-672.000000, -246.000000)" fill="#9B2437" fill-rule="nonzero">
            <g id="telephone-symbol" transform="translate(672.000000, 246.000000)">
                <path d="M414.41,24.123 C398.333,8.042 378.963,0 356.315,0 L82.228,0 C59.58,0 40.21,8.042 24.126,24.123 C8.045,40.207 0.003,59.576 0.003,82.225 L0.003,356.309 C0.003,378.956 8.045,398.327 24.126,414.411 C40.21,430.495 59.58,438.537 82.228,438.537 L356.312,438.537 C378.96,438.537 398.33,430.495 414.407,414.411 C430.491,398.327 438.533,378.957 438.533,356.309 L438.533,82.225 C438.532,59.576 430.49,40.204 414.41,24.123 Z M359.159,332.874 C355.162,341.628 346.169,349.245 332.182,355.72 C318.192,362.195 305.769,365.432 294.917,365.432 C291.871,365.432 288.634,365.197 285.209,364.721 C281.783,364.242 278.885,363.769 276.506,363.293 C274.128,362.817 270.983,361.962 267.085,360.723 C263.18,359.489 260.37,358.534 258.663,357.869 C256.945,357.205 253.807,356.015 249.242,354.303 C244.673,352.585 241.815,351.538 240.68,351.165 C209.465,339.738 178.959,319.137 149.173,289.351 C119.387,259.558 98.782,229.059 87.361,197.849 C86.983,196.706 85.936,193.85 84.221,189.284 C82.509,184.719 81.316,181.576 80.65,179.865 C79.988,178.152 79.035,175.344 77.797,171.445 C76.56,167.542 75.706,164.404 75.229,162.022 C74.751,159.646 74.279,156.745 73.802,153.318 C73.326,149.891 73.089,146.651 73.089,143.608 C73.089,132.758 76.326,120.339 82.799,106.349 C89.271,92.361 96.883,83.368 105.64,79.37 C115.728,75.181 125.34,73.087 134.477,73.087 C136.568,73.087 138.093,73.279 139.042,73.659 C139.995,74.044 141.566,75.753 143.756,78.799 C145.946,81.845 148.324,85.698 150.893,90.362 C153.463,95.027 155.985,99.548 158.459,103.924 C160.933,108.301 163.313,112.629 165.598,116.915 C167.882,121.194 169.309,123.91 169.879,125.048 C170.45,126.005 171.688,127.81 173.59,130.477 C175.492,133.14 176.923,135.516 177.873,137.612 C178.823,139.706 179.3,141.705 179.3,143.608 C179.3,146.467 177.347,149.939 173.446,154.028 C169.543,158.121 165.26,161.882 160.596,165.309 C155.932,168.736 151.651,172.401 147.749,176.303 C143.85,180.202 141.897,183.39 141.897,185.865 C141.897,187.198 142.23,188.767 142.897,190.575 C143.563,192.387 144.182,193.862 144.753,195.002 C145.324,196.143 146.23,197.762 147.465,199.858 C148.702,201.954 149.513,203.285 149.891,203.857 C160.358,222.7 172.399,238.927 186.005,252.538 C199.617,266.151 215.841,278.186 234.687,288.655 C235.254,289.039 236.589,289.846 238.691,291.085 C240.782,292.317 242.404,293.221 243.544,293.792 C244.687,294.363 246.158,294.983 247.969,295.644 C249.78,296.308 251.35,296.643 252.688,296.643 C255.724,296.643 259.913,293.505 265.248,287.225 C270.576,280.939 276.004,274.707 281.524,268.52 C287.04,262.339 291.509,259.246 294.942,259.246 C296.844,259.246 298.839,259.719 300.941,260.67 C303.036,261.621 305.41,263.052 308.073,264.954 C310.742,266.864 312.549,268.096 313.501,268.675 L328.626,276.946 C338.715,282.278 347.137,286.987 353.896,291.08 C360.655,295.173 364.32,297.979 364.892,299.499 C365.271,300.45 365.456,301.977 365.456,304.071 C365.449,313.199 363.354,322.812 359.159,332.874 Z" id="Shape"></path>
            </g>
        </g>
    </g>
</svg>